<svg xmlns="http://www.w3.org/2000/svg" version="1.2" viewBox="292.32 276.98 1421.69 356.45">
	<style>
		.s0 { fill: #000000 }
	</style>
	<path class="s0" d="m293.71 277.6c5.47 1.71 37.99 20.86 45.1 24.9q62.37 35.05 123.93 71.51c11.7-5.26 33.87-19.92 46.48-26.86 40.91-22.52 82.31-48.57 123.57-70.17 2.73 14.01 2.62 127.9-0.13 142.22q-29.75 16.81-59.17 34.22-41.28 24.41-83.24 47.62c-6.49-13.77-12.92-33.17-18.22-47.83-0.06 14.39 1.04 28.56 1.54 42.93 0.4 11.35 0.65 15.9-10.22 21.23-14.25-2.52-9.21-50.08-9.19-63.75-5.54 16.5-10.61 31.16-17.03 47.4-25.68-11.53-62.58-35.65-87.78-49.75-14.37-8.04-41.98-23.57-54.78-32.64-2.56-14.35-3.05-126.11-0.86-141.03z"/>
	<path class="s0" d="m1456.46 377.17c19.75-3.98 49.33 6.49 64.75 17.81 26.48 19.43 38.71 47.12 43.03 78.7 1.05 7.65 2.43 15.32-2.42 21.97-6.47 3.63-141.73 1.94-160.9 2.5 8.61 60.52 76.47 76.94 119.3 37.61 3.24-2.7 3.77-3.65 7.72-3.84 9.3 4.82 16.63 14.16 23.89 22-38.59 40.78-106.44 49.9-151.44 14.1-22.59-17.64-36.97-43.74-39.85-72.25-6.65-62.17 33.46-112.01 95.92-118.6zm20.14 91.32c15.38-0.11 32.63 0.15 47.85-0.7-6.46-43.3-28.2-60.66-71.81-57.87-32.55 8.17-47.31 24.63-51.62 58.03q37.78 0.71 75.58 0.54z"/>
	<path class="s0" d="m980.63 377.15c58.98-7.39 104.1 45.41 108.26 100.22 0.53 7.01 0.8 11.2-3.22 17.25-6 5.12-47.84 3.12-58.09 3.08q-51.64-0.6-103.28 0.37c2.29 11.21 5.85 21.7 12.43 31.15 9.91 14.24 25.14 23.89 42.25 26.76 25.67 4.4 43.08-2.98 63.09-17.32l1.11-1.1c4.85-4.78 5.1-5.07 10.29-4.96 7.63 3.76 15.22 13.81 21.6 20.65-18.25 20.05-43.13 32.84-70.07 36.01-29.17 3.37-58.86-3.56-81.91-22.26-21.3-17.17-34.94-42.06-37.97-69.25-6.57-62.68 31.2-114.28 95.51-120.6zm18.66 91.39c14.61-0.04 34.95 0.49 49.08-0.84-6.85-43.34-29.17-61.67-73.28-57.72-35.33 9.58-43.29 24.9-51.12 58.44z"/>
	<path class="s0" d="m1239.47 377.19c8.62-2 26 1.83 34.35 4.52 24.19 7.78 39 32.71 40.7 57.39 2.8 40.86-0.41 82.76 1.48 123.79 0.28 6.15-0.05 14.71-2.03 20.47-6.1 4.44-29.27 2.55-38.11 2.29-5.59-47.39 9.58-111.98-8.98-155.57-11.26-26.42-52.75-18.61-73.08-5.7q-0.93 0.72-1.81 1.48c-26.91 22.91-19.13 65.38-19.96 97.04-0.55 20.92 1.06 41.66-0.42 62.79-14.2 0.38-24.65 0.14-38.85-0.68-1.66-35.58-0.13-77.52-0.42-113.67-0.22-24.98-1.17-65.51 0.73-89.23 35.78-4.95 39.54-1.68 39.40 32.97q2.15-3.01 4.44-5.92c17.87-22.51 34.99-28.69 62.56-31.97z"/>
	<path class="s0" d="m1676.76 293.52q10.46-0.62 20.9 0.02c22 1.45 16.15 21.09 14.07 36.17-12.48-0.87-19.75-1.46-32.11-0.37-22.66 14.46-20.83 29.26-19.01 53.61q23.99 0.18 47.98 0.63c0.54 12.22 0.64 20.96 0.08 33.15l-47.52 0.33c-1.63 51.21-0.36 107.98-0.23 159.7 0.04 3.51 0 3.37-1.31 6.68-7.51 4.75-28.89 2.70-38.70 2.31-1.91-13.81-0.89-40.26-0.90-54.86-0.06-38.15 1.08-75.70-0.51-113.93-11.60-0.06-21.24-0.29-32.80-1.15-4.63-36.85 2.46-29.97 33.47-33.90 0.69-46.79 3.73-77.68 56.59-88.39z"/>
	<path class="s0" d="m848.68 378.36c6-0.63 9.81-1.18 14.67 1.52 2.68 4.40 2.53 19.03 1.73 24.26-3.92 25.59-34.81 10.11-54.83 27.28-34.85 29.89-16.46 106.95-22.18 154.15-9.43 0.57-27.34 3.08-35.44-1.73-3.71-2.21-3.47-7.26-4.17-11.69 0.06-20.38-1.34-182.38 3.65-187.65 2.32-2.45 7.51-2.79 10.71-2.95 5.73-0.28 17.68-1.16 22.09 3.05 6.98 6.68 4.88 23.33 4.96 32.33 19.41-24.68 27.86-32.63 58.81-38.57z"/>
	<path class="s0" d="m599.88 476.48c1.43 0.65 1.52 1.04 2.72 2.23 2.01 10.80 2.01 53.74-0.41 63.69l-0.20 0.81c-1.86 7.84-36.88 23.86-45.79 28.46-5.94-1.12-13.75-3.48-19.75-5.09-1.91 14.99-5.17 34.56-9.50 48.88-5.28 4.22-18.83 11.57-25.30 15.27-3 1.68-2.84 1.59-6.30 1.40-0.20-0.30-0.42-0.59-0.60-0.91-1.61-2.89 17.30-96.35 20.84-105.77 7.45-5.24 52.01-8.46 64.85-9.89 7.08-16.40 4.68-28.72 19.44-39.08z"/>
	<path class="s0" d="m323.46 476.74c18.01 6.94 17.85 21.43 22.06 38.81 20.59 2.24 45.56 4.36 65.62 7.92 9.30 30.16 12.17 69.38 20.17 100.67 0.81 3.19 0.38 6.77-1.70 9.29-40.99-21.36-30.06-25.50-40.19-66.99-6.10 2.18-12.48 4.22-18.64 6.29-11.68-4.49-43.66-22.51-46.46-34.04-3.69-15.18-1.64-45.88-0.86-61.95z"/>
	<path class="s0" d="m428.41 526.05c11.27 3.72 24.12 11.31 31.59 20.61l1.01 1.27c3.54 0.81 10.51-6.21 14-8.73 7.76-5.60 15.65-9.96 24.03-14.49-2.81 17.15-4.19 35.16-6.95 52.67-1.53 10.12-2.62 21.07-3.81 31.30-7.39 0.74-44.42 0.47-46.94-3.02-5.79-8.05-11.36-67.70-12.93-79.61z"/>
</svg>
